<svg xmlns="http://www.w3.org/2000/svg" viewBox="0 0 1200 650">
<defs><linearGradient id="bg" x1="0" y1="0" x2="1" y2="1"><stop stop-color="#071428"/><stop offset=".55" stop-color="#06492f"/><stop offset="1" stop-color="#0b63ce"/></linearGradient><linearGradient id="gold" x1="0" x2="1"><stop stop-color="#d6a927"/><stop offset="1" stop-color="#f7d67a"/></linearGradient></defs>
<rect width="1200" height="650" rx="40" fill="url(#bg)"/>
<circle cx="1040" cy="120" r="180" fill="#16c76a" opacity=".18"/><circle cx="120" cy="550" r="210" fill="#d6a927" opacity=".22"/>
<g opacity=".35" fill="#fff"><rect x="720" y="270" width="70" height="170"/><rect x="800" y="210" width="95" height="230"/><rect x="905" y="250" width="70" height="190"/><rect x="985" y="180" width="100" height="260"/><rect x="1095" y="300" width="50" height="140"/></g>
<g transform="translate(720 410)"><rect x="0" y="0" width="360" height="145" rx="18" fill="#fff" opacity=".96"/><rect x="38" y="50" width="78" height="60" rx="8" fill="#d6a927"/><rect x="140" y="35" width="78" height="75" rx="8" fill="#16c76a"/><rect x="242" y="55" width="78" height="55" rx="8" fill="#0b63ce"/><circle cx="85" cy="145" r="24" fill="#071428"/><circle cx="280" cy="145" r="24" fill="#071428"/></g>
<g transform="translate(85 90)"><rect width="112" height="112" rx="28" fill="url(#gold)"/><text x="56" y="70" font-size="42" font-weight="900" text-anchor="middle" font-family="Arial" fill="#fff">MP</text></g>
<text x="85" y="250" fill="#fff" font-size="56" font-weight="900" font-family="Arial">Marhaba Packaging</text>
<text x="85" y="312" fill="#d9f7e7" font-size="28" font-weight="700" font-family="Arial">Wholesale Products • Packaging • E-commerce Support</text>
<text x="85" y="380" fill="#fff" opacity=".92" font-size="24" font-family="Arial">UAE & KSA Supply Partner</text>
<g transform="translate(85 435)"><rect width="185" height="52" rx="26" fill="#16c76a"/><text x="92" y="34" font-size="18" text-anchor="middle" font-weight="800" font-family="Arial" fill="#fff">500+ Products</text></g>
<g transform="translate(290 435)"><rect width="210" height="52" rx="26" fill="#fff" opacity=".96"/><text x="105" y="34" font-size="18" text-anchor="middle" font-weight="800" font-family="Arial" fill="#071428">UAE & KSA</text></g>
</svg>